<?xml version="1.0" encoding="utf-8"?>
<!-- Generator: Adobe Illustrator 16.0.0, SVG Export Plug-In . SVG Version: 6.00 Build 0)  -->
<!DOCTYPE svg PUBLIC "-//W3C//DTD SVG 1.1//EN" "http://www.w3.org/Graphics/SVG/1.1/DTD/svg11.dtd">
<svg version="1.1" id="Layer_1" xmlns="http://www.w3.org/2000/svg" xmlns:xlink="http://www.w3.org/1999/xlink" x="0px" y="0px"
	 width="25px" height="25px" viewBox="0 0 25 25" enable-background="new 0 0 25 25" xml:space="preserve">
<path fill="#333333" d="M20,0.4H5.1c-2.6,0-4.7,2.1-4.7,4.7v5v10c0,2.6,2.1,4.7,4.7,4.7H20c2.6,0,4.7-2.1,4.7-4.7v-10v-5
	C24.7,2.5,22.6,0.4,20,0.4z M21.4,3.2h0.5v0.5v3.6h-4.1V3.2H21.4z M9.1,10.1c0.8-1.1,2-1.8,3.5-1.8c1.4,0,2.7,0.7,3.5,1.8
	c0.5,0.7,0.8,1.6,0.8,2.5c0,2.4-1.9,4.3-4.3,4.3S8.3,15,8.3,12.6C8.3,11.6,8.6,10.8,9.1,10.1z M22.4,20c0,1.3-1,2.3-2.3,2.3h-15
	c-1.3,0-2.3-1-2.3-2.3V10h3.6c-0.3,0.8-0.5,1.6-0.5,2.5c0,3.7,3,6.7,6.7,6.7c3.7,0,6.7-3,6.7-6.7c0-0.9-0.2-1.7-0.5-2.5h3.6V20z"/>
</svg>
