<?xml version="1.0" encoding="utf-8"?>
<!-- Generator: Adobe Illustrator 16.0.0, SVG Export Plug-In . SVG Version: 6.00 Build 0)  -->
<!DOCTYPE svg PUBLIC "-//W3C//DTD SVG 1.1//EN" "http://www.w3.org/Graphics/SVG/1.1/DTD/svg11.dtd">
<svg version="1.1" id="Layer_1" xmlns="http://www.w3.org/2000/svg" xmlns:xlink="http://www.w3.org/1999/xlink" x="0px" y="0px"
	 width="25px" height="25px" viewBox="0 0 25 25" enable-background="new 0 0 25 25" xml:space="preserve">
<g>
	<rect x="1" y="8.6" fill="#333333" width="5.1" height="15.5"/>
	<path fill="#333333" d="M3.6,1.2c-1.8,0-2.9,1.2-2.9,2.7s1.1,2.7,2.8,2.7l0,0c1.8,0,2.9-1.2,2.9-2.7C6.4,2.3,5.4,1.2,3.6,1.2z"/>
	<path fill="#333333" d="M18.8,8.3c-2.7,0-3.9,1.5-4.6,2.6V11l0,0c0,0,0,0,0-0.1V8.6H9c0,1.5,0,15.5,0,15.5h5.1v-8.6
		c0-0.5,0-0.9,0.2-1.3c0.4-0.9,1.2-1.9,2.6-1.9c1.9,0,2.6,1.4,2.6,3.5v8.3h5.1v-8.9C24.7,10.5,22.1,8.3,18.8,8.3z"/>
	<path fill="#333333" d="M14.1,10.9L14.1,10.9C14.1,10.8,14.1,10.8,14.1,10.9L14.1,10.9z"/>
</g>
</svg>
