<?xml version="1.0" encoding="utf-8"?>
<!-- Generator: Adobe Illustrator 17.1.0, SVG Export Plug-In . SVG Version: 6.00 Build 0)  -->
<!DOCTYPE svg PUBLIC "-//W3C//DTD SVG 1.1//EN" "http://www.w3.org/Graphics/SVG/1.1/DTD/svg11.dtd">
<svg version="1.1" id="Layer_1" xmlns="http://www.w3.org/2000/svg" xmlns:xlink="http://www.w3.org/1999/xlink" x="0px" y="0px"
	 width="25px" height="25px" viewBox="0 0 25 25" style="enable-background:new 0 0 25 25;" xml:space="preserve">
<style type="text/css">
	.st0{fill:#333333;}
</style>
<g>
	<g>
		<path class="st0" d="M10.4,1.8C10.4,1.8,10.3,1.8,10.4,1.8l-0.2-0.1L10.4,1.8z"/>
		<path class="st0" d="M1.6,10.4L1.6,10.4c0,0.1,0,0.2,0.1,0.2L1.6,10.4z"/>
		<path class="st0" d="M23.1,14.6L23.1,14.6c0-0.1,0-0.2-0.1-0.2L23.1,14.6z"/>
		<path class="st0" d="M14.2,23.1C14.2,23.1,14.3,23.1,14.2,23.1l0.2,0.1L14.2,23.1z"/>
		<path class="st0" d="M23.2,14.4L23.2,14.4v-0.2C23.1,14.3,23.1,14.4,23.2,14.4c0.1-0.6,0.2-1.3,0.2-1.9c0-1.5-0.3-2.9-0.8-4.2
			c-0.6-1.3-1.3-2.5-2.3-3.5c-1-1-2.1-1.8-3.5-2.3s-2.8-0.8-4.2-0.8c-0.7,0-1.4,0.1-2,0.2l0,0c0,0,0.1,0,0.1,0.1h-0.2h0.1
			c-0.9-0.5-1.9-0.7-3-0.7C5.6,1.1,4,1.7,2.8,2.9S1,5.8,1,7.5c0,1.1,0.3,2.2,0.8,3.1v-0.1v0.2c0,0,0-0.1-0.1-0.1
			c-0.1,0.6-0.2,1.3-0.2,1.8c0,1.5,0.3,2.9,0.8,4.2c0.6,1.3,1.3,2.5,2.3,3.5c1,1,2.1,1.8,3.5,2.3s2.8,0.8,4.2,0.8
			c0.6,0,1.3-0.1,1.9-0.2c0,0-0.1,0-0.1-0.1h0.3h-0.1c0.9,0.6,2,0.8,3.1,0.8c1.8,0,3.3-0.6,4.5-1.8c1.2-1.2,1.8-2.9,1.8-4.5
			C23.9,16.4,23.6,15.4,23.2,14.4z M12.5,19.1c-3.9,0-5.6-1.9-5.6-3.3c0-0.7,0.6-1.2,1.3-1.2c1.7,0,1.2,2.4,4.3,2.4
			c1.6,0,2.5-0.8,2.5-1.8c0-0.6-0.3-1.1-1.3-1.4L10.2,13C7.5,12.3,7,10.8,7,9.4c0-3,2.8-4.1,5.4-4.1c2.4,0,5.2,1.3,5.2,3
			c0,0.7-0.6,1.2-1.4,1.2c-1.4,0-1.1-1.9-4-1.9c-1.4,0-2.2,0.6-2.2,1.6s1.1,1.2,2.1,1.4l2.6,0.6c2.8,0.6,3.5,2.2,3.5,3.8
			C18,17.3,16.1,19.1,12.5,19.1z"/>
	</g>
</g>
</svg>
