<?xml version="1.0" encoding="utf-8"?>
<!-- Generator: Adobe Illustrator 16.0.0, SVG Export Plug-In . SVG Version: 6.00 Build 0)  -->
<!DOCTYPE svg PUBLIC "-//W3C//DTD SVG 1.1//EN" "http://www.w3.org/Graphics/SVG/1.1/DTD/svg11.dtd">
<svg version="1.1" id="Layer_1" xmlns="http://www.w3.org/2000/svg" xmlns:xlink="http://www.w3.org/1999/xlink" x="0px" y="0px"
	 width="25px" height="25px" viewBox="0 0 25 25" enable-background="new 0 0 25 25" xml:space="preserve">
<path fill="#333333" d="M24.6,4.6c-0.9,0.4-1.9,0.7-2.9,0.8c1-0.6,1.8-1.6,2.2-2.8c-1,0.6-2,1-3.2,1.2c-0.9-1-2.2-1.6-3.7-1.6
	c-2.8,0-5,2.2-5,5c0,0.4,0,0.8,0.1,1.1c-4-0.1-7.7-2.1-10.2-5.2C1.5,3.9,1.3,4.7,1.3,5.7c0,1.7,0.9,3.3,2.2,4.2
	c-0.8,0-1.6-0.3-2.3-0.6c0,0,0,0,0,0.1c0,2.4,1.7,4.4,4,4.9c-0.4,0.1-0.9,0.2-1.3,0.2c-0.3,0-0.6,0-0.9-0.1c0.6,2,2.5,3.4,4.7,3.5
	C6,19.2,3.8,20,1.5,20c-0.4,0-0.8,0-1.2-0.1C2.5,21.2,5.1,22,7.9,22c9.2,0,14.2-7.6,14.2-14.2c0-0.2,0-0.4,0-0.6
	C23.1,6.5,24,5.6,24.6,4.6z"/>
</svg>
